<?xml version="1.0" encoding="UTF-8"?>
<svg xmlns="http://www.w3.org/2000/svg" xmlns:xlink="http://www.w3.org/1999/xlink" width="375pt" height="374.999991pt" viewBox="0 0 375 374.999991" version="1.2">
<g id="surface1">
<path style=" stroke:none;fill-rule:nonzero;fill:rgb(100%,0%,0%);fill-opacity:1;" d="M 200.125 109.90625 L 248.164062 109.90625 L 248.164062 194.210938 L 200.125 194.210938 Z M 200.125 109.90625 "/>
<path style=" stroke:none;fill-rule:nonzero;fill:rgb(100%,100%,100%);fill-opacity:1;" d="M 359.308594 42.082031 L 359.308594 70.269531 L 84.367188 70.269531 L 84.367188 42.082031 Z M 359.308594 42.082031 "/>
<path style=" stroke:none;fill-rule:nonzero;fill:rgb(100%,100%,100%);fill-opacity:1;" d="M 359.308594 25.777344 L 359.308594 55.484375 L 84.304688 55.484375 L 84.304688 25.777344 Z M 359.308594 25.777344 "/>
<path style=" stroke:none;fill-rule:nonzero;fill:rgb(100%,0%,0%);fill-opacity:1;" d="M 142.28125 61.085938 L 182.394531 33.472656 L 243.472656 122.195312 L 203.359375 149.808594 Z M 142.28125 61.085938 "/>
<path style=" stroke:none;fill-rule:nonzero;fill:rgb(100%,0%,0%);fill-opacity:1;" d="M 260.882812 43.464844 L 296.652344 63.679688 L 244.4375 156.054688 L 208.671875 135.835938 Z M 260.882812 43.464844 "/>
<path style=" stroke:none;fill-rule:nonzero;fill:rgb(100%,0%,0%);fill-opacity:1;" d="M 258.855469 59.4375 L 337.65625 59.4375 L 337.65625 194.070312 L 258.855469 194.070312 Z M 258.855469 59.4375 "/>
<path style=" stroke:none;fill-rule:nonzero;fill:rgb(100%,0%,0%);fill-opacity:1;" d="M 242.242188 105.617188 L 337.410156 105.617188 L 337.410156 194.320312 L 242.242188 194.320312 Z M 242.242188 105.617188 "/>
<path style=" stroke:none;fill-rule:nonzero;fill:rgb(100%,100%,100%);fill-opacity:1;" d="M -101.984375 205.316406 L 863.964844 205.316406 L 863.964844 273.609375 L -101.984375 273.609375 Z M -101.984375 205.316406 "/>
<path style=" stroke:none;fill-rule:nonzero;fill:rgb(100%,0%,0%);fill-opacity:1;" d="M 88.957031 61.964844 L 138.144531 61.964844 L 138.144531 194.21875 L 88.957031 194.21875 Z M 88.957031 61.964844 "/>
<path style=" stroke:none;fill-rule:nonzero;fill:rgb(100%,100%,100%);fill-opacity:1;" d="M 96.292969 70.214844 L 130.777344 70.214844 L 130.777344 184.394531 L 96.292969 184.394531 Z M 96.292969 70.214844 "/>
<path style=" stroke:none;fill-rule:nonzero;fill:rgb(100%,100%,100%);fill-opacity:1;" d="M 210.25 113.378906 L 268.746094 113.378906 L 268.746094 193.953125 L 210.25 193.953125 Z M 210.25 113.378906 "/>
<path style=" stroke:none;fill-rule:nonzero;fill:rgb(100%,100%,100%);fill-opacity:1;" d="M 152.75 57.726562 L 177.53125 40.667969 L 239.433594 130.59375 L 214.65625 147.648438 Z M 152.75 57.726562 "/>
<path style=" stroke:none;fill-rule:nonzero;fill:rgb(100%,100%,100%);fill-opacity:1;" d="M 268.664062 52.285156 L 298.328125 69.054688 L 248.25 157.644531 L 218.585938 140.878906 Z M 268.664062 52.285156 "/>
<path style=" stroke:none;fill-rule:nonzero;fill:rgb(100%,100%,100%);fill-opacity:1;" d="M 255.25 79.839844 L 337.664062 79.839844 L 337.664062 193.898438 L 255.25 193.898438 Z M 255.25 79.839844 "/>
<path style=" stroke:none;fill-rule:nonzero;fill:rgb(100%,100%,100%);fill-opacity:1;" d="M 110.5 61.957031 L 110.5 28.015625 L 350.773438 28.015625 L 350.773438 61.957031 Z M 110.5 61.957031 "/>
<path style=" stroke:none;fill-rule:nonzero;fill:rgb(100%,0%,0%);fill-opacity:1;" d="M 151.21875 70.207031 L 151.21875 33.449219 L 200.144531 33.449219 L 200.144531 70.207031 Z M 151.21875 70.207031 "/>
<path style=" stroke:none;fill-rule:nonzero;fill:rgb(100%,0%,0%);fill-opacity:1;" d="M 250.382812 70.210938 L 250.382812 34.277344 L 337.476562 34.277344 L 337.476562 70.210938 Z M 250.382812 70.210938 "/>
<path style=" stroke:none;fill-rule:nonzero;fill:rgb(100%,100%,100%);fill-opacity:1;" d="M 278.242188 70.214844 L 337.617188 70.214844 L 337.617188 151.210938 L 278.242188 151.210938 Z M 278.242188 70.214844 "/>
<path style=" stroke:none;fill-rule:nonzero;fill:rgb(100%,0%,0%);fill-opacity:1;" d="M 331.949219 59.441406 L 343.074219 59.441406 L 343.074219 200.097656 L 331.949219 200.097656 Z M 331.949219 59.441406 "/>
<path style=" stroke:none;fill-rule:nonzero;fill:rgb(100%,0%,0%);fill-opacity:1;" d="M 343.039062 184.5 L 343.039062 198.632812 L 204.8125 198.632812 L 204.8125 184.5 Z M 343.039062 184.5 "/>
<path style=" stroke:none;fill-rule:nonzero;fill:rgb(100%,100%,100%);fill-opacity:1;" d="M 359.308594 194.148438 L 359.308594 214.066406 L 84.398438 214.066406 L 84.398438 194.148438 Z M 359.308594 194.148438 "/>
<path style=" stroke:none;fill-rule:nonzero;fill:rgb(100%,100%,100%);fill-opacity:1;" d="M 363.875 25.777344 L 363.875 45.695312 L 88.964844 45.695312 L 88.964844 25.777344 Z M 363.875 25.777344 "/>
<path style=" stroke:none;fill-rule:nonzero;fill:rgb(100%,100%,100%);fill-opacity:1;" d="M 347.699219 33.832031 L 347.699219 62.019531 L 72.761719 62.019531 L 72.761719 33.832031 Z M 347.699219 33.832031 "/>
</g>
</svg>
